<?xml version="1.0" standalone="no"?>
<!DOCTYPE svg PUBLIC "-//W3C//DTD SVG 20010904//EN"
 "http://www.w3.org/TR/2001/REC-SVG-20010904/DTD/svg10.dtd">
<svg version="1.0" xmlns="http://www.w3.org/2000/svg"
 width="700.000000pt" height="700.000000pt" viewBox="0 0 700.000000 700.000000"
 preserveAspectRatio="xMidYMid meet">
<metadata>
Created by potrace 1.11, written by Peter Selinger 2001-2013
</metadata>
<g transform="translate(0.000000,700.000000) scale(0.100000,-0.100000)"
fill="#000000" stroke="none">
<path d="M1991 6211 c-35 -12 -68 -34 -96 -62 -61 -63 -1473 -2511 -1494
-2591 -14 -52 -14 -64 0 -115 11 -42 201 -381 691 -1228 371 -643 696 -1207
722 -1252 26 -44 66 -99 90 -121 83 -77 -24 -72 1596 -72 1268 0 1453 2 1498
15 108 32 84 -4 871 1361 787 1365 759 1311 730 1416 -9 31 -100 199 -222 411
-114 197 -207 361 -207 365 0 8 250 155 254 150 2 -2 22 -38 46 -80 l44 -77
30 18 c17 10 123 72 236 136 113 65 207 119 209 121 3 3 -764 1339 -779 1357
-6 6 -444 -238 -474 -264 -4 -4 10 -39 33 -77 23 -39 41 -75 41 -80 0 -6 -55
-42 -122 -81 -95 -55 -125 -68 -134 -58 -6 6 -102 171 -214 365 -222 386 -247
419 -343 447 -44 13 -242 15 -1501 15 -1387 -1 -1453 -1 -1505 -19z m3566
-1516 c375 -649 682 -1186 682 -1193 1 -7 -49 -100 -111 -205 -62 -106 -369
-637 -684 -1182 l-572 -990 -1372 0 -1372 0 -684 1185 c-408 706 -682 1191
-679 1200 7 17 179 318 878 1530 258 448 474 821 480 828 7 9 291 12 1381 10
l1371 -3 682 -1180z m888 513 c165 -286 300 -525 300 -531 0 -5 -37 -31 -82
-58 l-83 -49 -14 23 c-33 51 -596 1030 -596 1036 0 6 160 100 170 100 3 0 140
-234 305 -521z m-382 -221 c115 -199 209 -366 208 -372 -1 -10 -175 -115 -191
-115 -8 0 -425 718 -425 732 0 8 183 118 195 118 3 0 99 -163 213 -363z"/>
<path d="M3137 5339 c-98 -24 -184 -98 -218 -188 -19 -51 -20 -72 -17 -430 l3
-376 83 -162 c78 -154 82 -166 82 -228 l0 -64 -587 -3 -588 -3 -47 -27 c-61
-36 -123 -108 -142 -165 -22 -65 -22 -321 0 -386 19 -56 81 -129 137 -162 78
-45 140 -49 704 -42 l522 7 3 -618 3 -617 27 -51 c32 -60 93 -118 157 -148 41
-19 64 -21 206 -21 146 0 164 2 210 23 63 29 119 83 153 147 l27 50 3 617 3
618 73 0 c71 0 80 -3 267 -87 l194 -88 345 0 345 0 50 27 c63 33 118 88 147
147 23 45 23 53 23 391 0 339 0 346 -23 391 -30 61 -81 113 -145 147 l-52 27
-345 0 -345 0 -195 -88 c-187 -84 -198 -87 -267 -87 l-73 0 0 65 c0 62 4 74
83 228 l82 162 3 376 c3 358 2 379 -17 430 -26 69 -88 134 -160 168 l-56 26
-310 2 c-170 1 -327 -3 -348 -8z m633 -224 c48 -25 52 -62 48 -404 l-4 -306
-87 -166 -87 -166 0 -196 0 -197 215 0 216 0 192 85 192 85 283 0 c196 0 290
-4 305 -12 33 -17 46 -39 47 -75 l0 -33 -300 0 -300 0 0 -45 0 -45 300 0 300
0 0 -50 0 -50 -300 0 -300 0 0 -40 0 -40 300 0 300 0 0 -50 0 -50 -300 0 -300
0 0 -45 0 -45 300 0 300 0 0 -32 c-1 -37 -14 -59 -47 -76 -15 -8 -109 -12
-305 -12 l-284 0 -202 90 -202 90 -205 0 -205 0 0 -689 c0 -433 -4 -699 -10
-716 -15 -38 -65 -55 -165 -55 -100 0 -150 17 -165 55 -6 17 -10 283 -10 716
l0 689 -665 0 -666 0 -24 25 c-24 23 -25 30 -25 145 0 175 -15 165 275 173
125 4 426 7 667 7 l438 0 0 197 0 196 -87 166 -87 166 -4 306 c-4 338 1 379
46 403 40 22 570 23 612 1z"/>
</g>
</svg>
